<svg height="477.60001pt" viewBox="0 0 477.60001 477.60001" width="477.60001pt" xmlns="http://www.w3.org/2000/svg"><path d="m477.601562 238.800781c0 131.886719-106.914062 238.800781-238.800781 238.800781s-238.800781-106.914062-238.800781-238.800781 106.914062-238.800781 238.800781-238.800781 238.800781 106.914062 238.800781 238.800781zm0 0" fill="#382b73"/><path d="m445.398438 238.800781c0 114.101563-92.496094 206.597657-206.597657 206.597657-114.101562 0-206.597656-92.496094-206.597656-206.597657 0-114.101562 92.496094-206.597656 206.597656-206.597656 114.101563 0 206.597657 92.496094 206.597657 206.597656zm0 0" fill="#473080"/><path d="m347.285156 188.316406h18.011719c4.421875 0 8.007813-3.585937 8.007813-8.007812v-52.054688c0-4.425781-3.585938-8.007812-8.007813-8.007812h-52.058594c-4.421875 0-8.007812 3.585937-8.007812 8.007812v52.054688c0 4.421875 3.585937 8.007812 8.007812 8.007812h12.128907c-10.050782 20.160156-25.582032 36.460938-44.34375 46.375.261718-1.910156.410156-3.859375.410156-5.84375 0-20.101562-13.914063-36.945312-32.636719-41.449218v-32.394532c15.277344-4.355468 26.480469-18.382812 26.480469-35.058594 0-20.144531-16.332032-36.476562-36.480469-36.476562-20.144531 0-36.476563 16.332031-36.476563 36.476562 0 16.675782 11.199219 30.703126 26.476563 35.058594v32.421875c-18.140625 4.390625-31.835937 20.527344-32.601563 39.679688-.101562 2.582031.03125 5.113281.371094 7.582031-18.757812-9.914062-34.285156-26.214844-44.335937-46.371094h12.128906c4.421875 0 8.007813-3.585937 8.007813-8.007812v-52.054688c0-4.425781-3.585938-8.007812-8.007813-8.007812h-52.058594c-4.421875 0-8.007812 3.585937-8.007812 8.007812v52.054688c0 4.421875 3.585937 8.007812 8.007812 8.007812h18.011719c12.277344 29.789063 34.433594 53.664063 61.894531 66.527344-26.195312 12.265625-47.578125 34.554688-60.148437 62.441406h-19.757813c-4.421875 0-8.007812 3.585938-8.007812 8.007813v52.054687c0 4.421875 3.585937 8.007813 8.007812 8.007813h52.054688c4.421875 0 8.007812-3.585938 8.007812-8.007813v-52.054687c0-4.421875-3.585937-8.007813-8.007812-8.007813h-9.996094c13.554687-24.648437 35.53125-42.914062 61.421875-49.824218 2.375 4.273437 3.613281 9.167968 3.613281 14.148437v.53125c0 2.632813 1.863281 4.828125 4.339844 5.347656h-.121094v20.84375c0 3.101563 2.238281 5.671875 5.1875 6.203125v36.0625c-15.277343 4.351563-26.480469 18.382813-26.480469 35.054688 0 20.148437 16.332032 36.480468 36.480469 36.480468 20.144531 0 36.476563-16.332031 36.476563-36.480468 0-16.671875-11.199219-30.703125-26.476563-35.054688v-36.0625c2.945313-.535156 5.1875-3.101562 5.1875-6.203125v-20.84375h-.121093c2.476562-.519531 4.335937-2.714843 4.335937-5.347656v-.949219c0-4.878906 1.328125-9.5625 3.683594-13.710937 25.859375 6.921875 47.8125 25.175781 61.351562 49.804687h-9.996093c-4.421876 0-8.007813 3.585938-8.007813 8.007813v52.054687c0 4.421875 3.585937 8.007813 8.007813 8.007813h52.054687c4.425781 0 8.007813-3.585938 8.007813-8.007813v-52.054687c0-4.421875-3.585938-8.007813-8.007813-8.007813h-19.753906c-12.570313-27.886718-33.953125-50.175781-60.148438-62.441406 27.457031-12.863281 49.617188-36.738281 61.890625-66.527344zm0 0" fill="#382b73"/><path d="m238.800781 251.265625c-65.617187 0-119-58.527344-119-130.464844 0-5.523437 4.476563-10 10-10 5.519531 0 10 4.476563 10 10 0 60.910157 44.410157 110.464844 99 110.464844 54.585938 0 99-49.554687 99-110.464844 0-5.523437 4.476563-10 10-10 5.519531 0 10 4.476563 10 10 0 71.9375-53.382812 130.464844-119 130.464844zm0 0" fill="#ef5a9d"/><path d="m347.800781 110.800781c-5.523437 0-10 4.476563-10 10h10c0 66.53125-48.804687 120.464844-109 120.464844-60.199219 0-109-53.933594-109-120.464844h10c0-5.523437-4.480469-10-10-10-5.523437 0-10 4.476563-10 10 0 71.9375 53.382813 130.464844 119 130.464844 65.617188 0 119-58.527344 119-130.464844 0-5.523437-4.480469-10-10-10zm0 0" fill="#e43d91"/><path d="m347.800781 370.878906c-5.523437 0-10-4.476562-10-10 0-60.910156-44.414062-110.464844-99-110.464844-54.589843 0-99 49.554688-99 110.464844 0 5.523438-4.480469 10-10 10-5.523437 0-10-4.476562-10-10 0-71.9375 53.382813-130.464844 119-130.464844 65.617188 0 119 58.527344 119 130.464844 0 5.523438-4.480469 10-10 10zm0 0" fill="#ef5a9d"/><path d="m238.800781 240.414062c-60.199219 0-109 53.933594-109 120.464844h10c0-60.910156 44.410157-110.464844 99-110.464844 54.585938 0 99 49.554688 99 110.464844h10c0-66.527344-48.804687-120.464844-109-120.464844zm0 0" fill="#e43d91"/><path d="m238.800781 375.839844c-5.523437 0-10-4.476563-10-10v-254.082032c0-5.523437 4.476563-10 10-10 5.519531 0 10 4.476563 10 10v254.082032c0 5.523437-4.480469 10-10 10zm0 0" fill="#ef5a9d"/><path d="m281.4375 214.847656c0-24.558594-20.757812-44.261718-45.683594-42.53125-21.5 1.492188-38.699218 19.253906-39.554687 40.789063-.527344 13.269531 5.015625 25.257812 14.078125 33.417969 5.933594 5.34375 9.117187 13.101562 9.117187 21.085937v.53125c0 3.015625 2.449219 5.464844 5.464844 5.464844h27.878906c3.019531 0 5.464844-2.449219 5.464844-5.464844v-.949219c0-8.019531 3.542969-15.542968 9.445313-20.96875 8.476562-7.789062 13.789062-18.960937 13.789062-31.375zm0 0" fill="#e6e7e8"/><path d="m262.851562 214.847656c0-24.558594-11.710937-44.261718-25.769531-42.53125-12.128906 1.492188-21.828125 19.253906-22.3125 40.789063-.296875 13.269531 2.832031 25.257812 7.941407 33.417969 3.347656 5.34375 5.144531 13.101562 5.144531 21.085937v.53125c0 3.015625 1.378906 5.464844 3.085937 5.464844h15.722656c1.703126 0 3.085938-2.449219 3.085938-5.464844v-.949219c0-8.019531 1.996094-15.542968 5.328125-20.96875 4.777344-7.789062 7.773437-18.960937 7.773437-31.375zm0 0" fill="#fff"/><path d="m247.671875 300.648438h-17.746094c-3.488281 0-6.316406-2.828126-6.316406-6.316407v-20.84375h30.378906v20.84375c0 3.488281-2.828125 6.316407-6.316406 6.316407zm0 0" fill="#fddd3a"/><path d="m240.160156 305.390625h-2.722656c-2.265625 0-4.105469-1.835937-4.105469-4.105469v-.636718h10.933594v.636718c0 2.269532-1.835937 4.105469-4.105469 4.105469zm0 0" fill="#e7ad27"/><path d="m223.613281 279.257812h30.375v3.859376h-30.375zm0 0" fill="#f6ca14"/><path d="m223.613281 288.65625h30.375v3.859375h-30.375zm0 0" fill="#f6ca14"/><path d="m257.789062 218.1875h-11.578124c-1.332032 0-2.179688-1.425781-1.546876-2.597656l9.75-18.007813c.632813-1.171875-.214843-2.597656-1.546874-2.597656h-14.066407c-.320312 0-.628906.089844-.898437.25-.132813.078125-.257813.175781-.367188.289063-.105468.113281-.203125.242187-.277344.382812l-18.996093 35.089844c-.101563.183594-.160157.371094-.191407.5625-.011718.074218-.019531.152344-.023437.226562v.109375c.003906.113281.019531.222657.046875.332031.007812.042969.023438.085938.035156.132813.066406.199219.164063.386719.292969.554687.132813.175782.300781.320313.492187.4375.097657.054688.203126.101563.308594.140626.039063.011718.074219.023437.113282.035156.148437.039062.304687.0625.472656.0625h16.085937c.113281 0 .21875.011718.324219.03125.246094.042968.46875.140625.664062.269531.109376.078125.210938.164063.300782.261719.179687.195312.320312.429687.394531.6875.058594.191406.085937.394531.074219.605468 0 .03125-.003906.070313-.007813.105469-.011719.105469-.035156.210938-.070312.316407l-6.367188 20.675781c-.046875.152343-.074219.296875-.082031.4375-.003906.058593-.007812.113281-.003906.167969 0 .082031.007812.164062.023437.242187.011719.078125.03125.152344.054688.226563.007812.023437.015625.046874.027343.070312.015626.046875.039063.09375.058594.140625.011719.023437.023438.042969.035156.066406.058594.113281.132813.214844.214844.308594.035156.035156.070313.074219.105469.105469.035156.035156.074219.070312.113281.097656.035156.035156.074219.0625.117188.089844.019531.015625.042968.03125.0625.042968.042968.027344.085937.050782.128906.074219.046875.023438.089844.042969.136719.0625.03125.015625.0625.027344.09375.039063.035156.011718.074219.023437.113281.039062.03125.007813.058594.015625.085938.019532.191406.046874.386718.0625.582031.046874.050781-.003906.101562-.011718.148437-.019531.097656-.019531.199219-.042969.292969-.082031.023437-.007812.046875-.019531.074219-.03125.140625-.0625.277344-.144531.40625-.253906s.246094-.238282.351562-.398438l3.777344-5.632812 21.121094-31.480469c.789062-1.164063-.050782-2.734375-1.457032-2.734375zm0 0" fill="#e6e7e8"/><path d="m259.25 216.925781c.785156-1.167969-.054688-2.738281-1.460938-2.738281h-11.578124c-1.332032 0-2.179688-1.425781-1.546876-2.597656l9.75-18.007813c.632813-1.171875-.214843-2.597656-1.546874-2.597656h-14.0625c-.648438 0-1.242188.355469-1.546876.921875l-18.992187 35.089844c-.636719 1.175781.210937 2.597656 1.542969 2.597656h16.089844c1.179687 0 2.027343 1.144531 1.679687 2.277344l-6.367187 20.671875c-.597657 1.933593 2.011718 3.179687 3.140624 1.5zm0 0" fill="#fede3a"/><path d="m245.011719 226.058594c.148437-.484375-.210938-.972656-.71875-.972656h-19.144531c-.566407 0-.929688-.609376-.660157-1.109376l17.859375-32.992187h-3.546875c-.644531 0-1.238281.355469-1.542969.921875l-18.996093 35.089844c-.632813 1.175781.214843 2.597656 1.546875 2.597656h16.085937c1.183594 0 2.03125 1.144531 1.679688 2.277344l-6.367188 20.671875c-.59375 1.933593 2.011719 3.179687 3.140625 1.5l3.777344-5.632813zm0 0" fill="#f7cb15"/><path d="m365.296875 174.316406h-52.054687c-4.425782 0-8.007813-3.585937-8.007813-8.007812v-52.054688c0-4.425781 3.585937-8.007812 8.007813-8.007812h52.054687c4.421875 0 8.007813 3.585937 8.007813 8.007812v52.054688c0 4.421875-3.585938 8.007812-8.007813 8.007812zm0 0" fill="#009add"/><path d="m359.183594 166.324219h-39.828125c-3.386719 0-6.128907-2.746094-6.128907-6.128907v-39.828124c0-3.386719 2.742188-6.128907 6.128907-6.128907h39.828125c3.382812 0 6.128906 2.742188 6.128906 6.128907v39.828124c0 3.382813-2.746094 6.128907-6.128906 6.128907zm0 0" fill="#1caee4"/><path d="m164.359375 174.316406h-52.058594c-4.421875 0-8.007812-3.585937-8.007812-8.007812v-52.054688c0-4.425781 3.585937-8.007812 8.007812-8.007812h52.058594c4.421875 0 8.007813 3.585937 8.007813 8.007812v52.054688c0 4.421875-3.585938 8.007812-8.007813 8.007812zm0 0" fill="#009add"/><path d="m158.246094 166.324219h-39.832032c-3.382812 0-6.125-2.746094-6.125-6.128907v-39.828124c0-3.386719 2.742188-6.128907 6.125-6.128907h39.832032c3.382812 0 6.128906 2.742188 6.128906 6.128907v39.828124c0 3.382813-2.746094 6.128907-6.128906 6.128907zm0 0" fill="#1caee4"/><path d="m365.296875 371.355469h-52.054687c-4.425782 0-8.007813-3.585938-8.007813-8.007813v-52.054687c0-4.425781 3.585937-8.007813 8.007813-8.007813h52.054687c4.421875 0 8.007813 3.585938 8.007813 8.007813v52.054687c0 4.421875-3.585938 8.007813-8.007813 8.007813zm0 0" fill="#009add"/><path d="m359.183594 363.363281h-39.828125c-3.386719 0-6.128907-2.746093-6.128907-6.128906v-39.832031c0-3.382813 2.742188-6.125 6.128907-6.125h39.828125c3.382812 0 6.128906 2.742187 6.128906 6.125v39.832031c0 3.382813-2.746094 6.128906-6.128906 6.128906zm0 0" fill="#1caee4"/><path d="m164.359375 371.355469h-52.058594c-4.421875 0-8.007812-3.585938-8.007812-8.007813v-52.054687c0-4.425781 3.585937-8.007813 8.007812-8.007813h52.058594c4.421875 0 8.007813 3.585938 8.007813 8.007813v52.054687c0 4.421875-3.585938 8.007813-8.007813 8.007813zm0 0" fill="#009add"/><path d="m158.246094 363.363281h-39.832032c-3.382812 0-6.125-2.746093-6.125-6.128906v-39.832031c0-3.382813 2.742188-6.125 6.125-6.125h39.832032c3.382812 0 6.128906 2.742187 6.128906 6.125v39.832031c0 3.382813-2.746094 6.128906-6.128906 6.128906zm0 0" fill="#1caee4"/><path d="m238.800781 142.425781c-20.148437 0-36.480469-16.332031-36.480469-36.480469 0-20.144531 16.332032-36.476562 36.480469-36.476562 20.144531 0 36.476563 16.332031 36.476563 36.476562 0 20.148438-16.332032 36.480469-36.476563 36.480469zm0 0" fill="#f7cb15"/><path d="m238.800781 133.5625c-15.253906 0-27.621093-12.363281-27.621093-27.617188 0-15.253906 12.367187-27.621093 27.621093-27.621093 15.253907 0 27.617188 12.367187 27.617188 27.621093 0 15.253907-12.363281 27.617188-27.617188 27.617188zm0 0" fill="#fede3a"/><path d="m238.800781 408.132812c-20.148437 0-36.480469-16.332031-36.480469-36.476562s16.332032-36.476562 36.480469-36.476562c20.144531 0 36.476563 16.332031 36.476563 36.476562s-16.332032 36.476562-36.476563 36.476562zm0 0" fill="#f7cb15"/><path d="m238.800781 399.273438c-15.253906 0-27.621093-12.367188-27.621093-27.617188 0-15.253906 12.367187-27.617188 27.621093-27.617188 15.253907 0 27.617188 12.363282 27.617188 27.617188 0 15.25-12.363281 27.617188-27.617188 27.617188zm0 0" fill="#fede3a"/></svg>